<svg width="24" height="24" viewBox="0 0 24 24" fill="none" xmlns="http://www.w3.org/2000/svg">
<g clip-path="url(#clip0_97_143)">
<path d="M8.7799 21.7487H5.61035C3.94835 21.7487 2.61035 20.4107 2.61035 18.7487V5.25133C2.61035 3.58933 3.94835 2.25133 5.61035 2.25133H16.8893C18.5513 2.25133 19.8893 3.58933 19.8893 5.25133V13.9909V16.9674" stroke="#951B1B" stroke-width="0.999999" stroke-linecap="round" stroke-linejoin="round"/>
<path d="M11.2173 18.7487C11.2173 20.2487 9.99223 21.7487 8.49854 21.7487H18.3892C20.0512 21.7487 21.3892 20.4107 21.3892 18.7487C21.3892 17.3837 20.5625 16.9674 19.8892 16.9674H13.0468C12.5065 16.9674 11.2173 17.1469 11.2173 18.7487Z" stroke="#951B1B" stroke-width="0.999999" stroke-linecap="round" stroke-linejoin="round"/>
<path d="M7.37354 5.8138H10.7017" stroke="#951B1B" stroke-width="0.999999" stroke-linecap="round" stroke-linejoin="round"/>
<path d="M7.37354 9.9388H15.9048" stroke="#951B1B" stroke-width="0.999999" stroke-linecap="round" stroke-linejoin="round"/>
<path d="M7.37354 14.0638H13.186" stroke="#951B1B" stroke-width="0.999999" stroke-linecap="round" stroke-linejoin="round"/>
</g>
<defs>
<clipPath id="clip0_97_143">
<rect width="24" height="24" fill="white"/>
</clipPath>
</defs>
</svg>
