<svg width="24" height="24" viewBox="0 0 24 24" fill="none" xmlns="http://www.w3.org/2000/svg">
<path d="M2.75607 17.8969C3.01857 17.8969 3.22482 17.6906 3.22482 17.4281V12.525L6.05607 11.0063V15.0281C6.05607 15.2906 6.26232 15.4969 6.52482 15.4969C6.78732 15.4969 6.99357 15.2906 6.99357 15.0281V9.44063L2.29669 11.9625V17.4281C2.28732 17.6813 2.49357 17.8969 2.75607 17.8969Z" fill="#951B1B"/>
<path d="M8.3999 14.3438C8.6624 14.3438 8.86865 14.1375 8.86865 13.875V5.5875L11.6999 4.06875V17.55C11.6999 17.8125 11.9062 18.0188 12.1687 18.0188C12.4312 18.0188 12.6374 17.8125 12.6374 17.55V2.50313L7.93115 5.025V13.875C7.93115 14.1281 8.1374 14.3438 8.3999 14.3438Z" fill="#951B1B"/>
<path d="M14.0437 17.4094C14.3062 17.4094 14.5124 17.2031 14.5124 16.9406V8.00625L17.3437 6.4875V14.5781C17.3437 14.8406 17.5499 15.0469 17.8124 15.0469C18.0749 15.0469 18.2812 14.8406 18.2812 14.5781V4.92188L13.5843 7.44375V16.9406C13.5749 17.2031 13.7905 17.4094 14.0437 17.4094Z" fill="#951B1B"/>
<path d="M23.4374 13.7063C23.353 13.5656 23.203 13.4719 23.0343 13.4719H19.7999C19.6311 13.4719 19.4811 13.5656 19.3968 13.7063C19.3124 13.8469 19.3124 14.025 19.3968 14.175L19.978 15.1781L17.3999 16.7438C17.0061 16.9875 16.6218 17.2219 16.228 17.4656C15.9468 17.6438 15.6655 17.8125 15.3936 17.9906C14.6624 18.4594 14.0155 18.8813 13.4155 19.2938C13.1061 19.5 12.8061 19.7156 12.4968 19.9219L8.29677 15.8156L0.721772 20.6344C0.506147 20.775 0.440522 21.0656 0.581147 21.2813C0.674897 21.4219 0.824897 21.4969 0.974897 21.4969C1.05927 21.4969 1.14365 21.4688 1.22802 21.4219L8.16552 17.0063L12.403 21.1406L12.9749 20.7281C13.2936 20.5031 13.6124 20.2781 13.9405 20.0625C14.5311 19.6594 15.1686 19.2469 15.8999 18.7781C16.1718 18.6 16.453 18.4313 16.7249 18.2531C17.1093 18.0094 17.503 17.775 17.8874 17.5313L20.2593 16.0781L20.4468 15.9656L21.0186 16.9594C21.103 17.1 21.253 17.1938 21.4218 17.1938C21.5905 17.1938 21.7405 17.1 21.8249 16.9594L23.4468 14.1563C23.5218 14.0344 23.5218 13.8563 23.4374 13.7063ZM21.4124 15.8063L20.6061 14.4094H22.2186L21.4124 15.8063Z" fill="#951B1B"/>
</svg>
