<svg width="85" height="72" viewBox="0 0 85 72" fill="none" xmlns="http://www.w3.org/2000/svg">
<path d="M26.172 29H22.524L11.548 12.392V29H7.9V6.728H11.548L22.524 23.304V6.728H26.172V29ZM34.6105 6.76V29H30.9625V6.76H34.6105ZM38.184 17.832C38.184 15.656 38.6853 13.704 39.688 11.976C40.712 10.248 42.088 8.904 43.816 7.944C45.5653 6.96266 47.4747 6.472 49.544 6.472C51.912 6.472 54.0133 7.05866 55.848 8.232C57.704 9.384 59.048 11.0267 59.88 13.16H55.496C54.92 11.9867 54.12 11.112 53.096 10.536C52.072 9.96 50.888 9.672 49.544 9.672C48.072 9.672 46.76 10.0027 45.608 10.664C44.456 11.3253 43.5493 12.2747 42.888 13.512C42.248 14.7493 41.928 16.1893 41.928 17.832C41.928 19.4747 42.248 20.9147 42.888 22.152C43.5493 23.3893 44.456 24.3493 45.608 25.032C46.76 25.6933 48.072 26.024 49.544 26.024C50.888 26.024 52.072 25.736 53.096 25.16C54.12 24.584 54.92 23.7093 55.496 22.536H59.88C59.048 24.6693 57.704 26.312 55.848 27.464C54.0133 28.616 51.912 29.192 49.544 29.192C47.4533 29.192 45.544 28.712 43.816 27.752C42.088 26.7707 40.712 25.416 39.688 23.688C38.6853 21.96 38.184 20.008 38.184 17.832ZM76.406 29L67.798 19.048V29H64.15V6.76H67.798V16.904L76.438 6.76H81.014L71.35 17.896L81.174 29H76.406ZM6.684 53.832C6.684 51.656 7.18533 49.704 8.188 47.976C9.212 46.248 10.588 44.904 12.316 43.944C14.0653 42.9627 15.9747 42.472 18.044 42.472C20.412 42.472 22.5133 43.0587 24.348 44.232C26.204 45.384 27.548 47.0267 28.38 49.16H23.996C23.42 47.9867 22.62 47.112 21.596 46.536C20.572 45.96 19.388 45.672 18.044 45.672C16.572 45.672 15.26 46.0027 14.108 46.664C12.956 47.3253 12.0493 48.2747 11.388 49.512C10.748 50.7493 10.428 52.1893 10.428 53.832C10.428 55.4747 10.748 56.9147 11.388 58.152C12.0493 59.3893 12.956 60.3493 14.108 61.032C15.26 61.6933 16.572 62.024 18.044 62.024C19.388 62.024 20.572 61.736 21.596 61.16C22.62 60.584 23.42 59.7093 23.996 58.536H28.38C27.548 60.6693 26.204 62.312 24.348 63.464C22.5133 64.616 20.412 65.192 18.044 65.192C15.9533 65.192 14.044 64.712 12.316 63.752C10.588 62.7707 9.212 61.416 8.188 59.688C7.18533 57.96 6.684 56.008 6.684 53.832ZM36.298 42.76V65H32.65V42.76H36.298ZM59.3595 65H55.7115L44.7355 48.392V65H41.0875V42.728H44.7355L55.7115 59.304V42.728H59.3595V65ZM67.798 45.704V52.232H75.478V55.208H67.798V62.024H76.438V65H64.15V42.728H76.438V45.704H67.798Z" fill="white"/>
<path d="M2 30C2 30 13.9909 38.5463 23.5 39C34.0772 39.5046 42.9375 33.7517 53.5 33C66.2496 32.0927 83 41.5 83 41.5" stroke="#951B1B" stroke-width="5"/>
</svg>
