<svg width="24" height="24" viewBox="0 0 24 24" fill="none" xmlns="http://www.w3.org/2000/svg">
<g clip-path="url(#clip0_97_186)">
<path d="M12 23.25C9.77497 23.25 7.59989 22.5902 5.74984 21.354C3.89979 20.1179 2.45785 18.3609 1.60636 16.3052C0.754875 14.2495 0.532087 11.9875 0.966171 9.80524C1.40025 7.62295 2.47171 5.61839 4.04505 4.04505C5.61839 2.47171 7.62295 1.40025 9.80524 0.966171C11.9875 0.532087 14.2495 0.754875 16.3052 1.60636C18.3609 2.45785 20.1179 3.89979 21.354 5.74984C22.5902 7.59989 23.25 9.77497 23.25 12C23.25 14.9837 22.0647 17.8452 19.955 19.955C17.8452 22.0647 14.9837 23.25 12 23.25ZM12 2.25001C10.0716 2.25001 8.18657 2.82183 6.5832 3.89318C4.97982 4.96452 3.73013 6.48726 2.99218 8.26884C2.25423 10.0504 2.06114 12.0108 2.43735 13.9021C2.81355 15.7935 3.74215 17.5307 5.10571 18.8943C6.46928 20.2579 8.20656 21.1865 10.0979 21.5627C11.9892 21.9389 13.9496 21.7458 15.7312 21.0078C17.5127 20.2699 19.0355 19.0202 20.1068 17.4168C21.1782 15.8134 21.75 13.9284 21.75 12C21.75 9.41414 20.7228 6.93419 18.8943 5.10571C17.0658 3.27723 14.5859 2.25001 12 2.25001Z" fill="#951B1B"/>
<path d="M15.18 16.245L11.4675 12.5325C11.398 12.4624 11.343 12.3793 11.3057 12.2879C11.2684 12.1966 11.2494 12.0987 11.25 12V6H12.75V11.6925L16.245 15.18L15.18 16.245Z" fill="#951B1B"/>
</g>
<defs>
<clipPath id="clip0_97_186">
<rect width="24" height="24" fill="white"/>
</clipPath>
</defs>
</svg>
