<svg width="24" height="24" viewBox="0 0 24 24" fill="none" xmlns="http://www.w3.org/2000/svg">
<path fill-rule="evenodd" clip-rule="evenodd" d="M23.5 20C23.5 21.381 22.381 22.5 21 22.5H3C1.619 22.5 0.5 21.381 0.5 20V5.5C0.5 4.3955 1.3955 3.5 2.5 3.5H12.5855L16.635 2.033C16.8915 1.9395 17.1755 2.072 17.269 2.3275L17.6955 3.5H19.5C20.6045 3.5 21.5 4.3955 21.5 5.5V6.5C22.6045 6.5 23.5 7.3955 23.5 8.5V20ZM2.5 4.5C1.948 4.5 1.5 4.948 1.5 5.5C1.5 6.052 1.948 6.5 2.5 6.5H4.2225H4.317C4.3235 6.4975 4.3275 6.492 4.334 6.4895L9.825 4.5H2.5ZM17.039 4.5905L16.508 3.1285L15.482 3.5H15.4835L12.7265 4.5H12.7215L7.202 6.5H17.733L17.039 4.5905ZM20.5 5.5C20.5 4.948 20.052 4.5 19.5 4.5H18.0585L18.7855 6.5H20.5V5.5ZM21.5 7.5H2.5C2.134 7.5 1.795 7.3945 1.5 7.2225V20C1.5 20.8285 2.172 21.5 3 21.5H21C21.8285 21.5 22.5 20.8285 22.5 20V16.5H20.5C19.3955 16.5 18.5 15.6045 18.5 14.5C18.5 13.3955 19.3955 12.5 20.5 12.5H22.5V8.5C22.5 7.948 22.052 7.5 21.5 7.5ZM22.5 15.5V13.5H20.5C19.948 13.5 19.5 13.948 19.5 14.5C19.5 15.052 19.948 15.5 20.5 15.5H22.5ZM20.5 14H21.5V15H20.5V14Z" fill="#951B1B"/>
</svg>
